<mxfile host="app.diagrams.net" modified="2021-08-01T13:19:32.792Z" agent="5.0 (Windows NT 10.0; Win64; x64) AppleWebKit/537.36 (KHTML, like Gecko) Chrome/92.0.4515.107 Safari/537.36 Edg/92.0.902.62" etag="Hx_6GNki8pecCM-yCnzG" version="14.9.3" type="github">
  <diagram id="snxXTZuw41H-MxLcc9SK" name="Page-1">
    <mxGraphModel dx="1038" dy="547" grid="1" gridSize="10" guides="1" tooltips="1" connect="1" arrows="1" fold="1" page="1" pageScale="1" pageWidth="827" pageHeight="1169" math="0" shadow="0">
      <root>
        <mxCell id="0" />
        <mxCell id="1" parent="0" />
        <mxCell id="1z4ttIA4PokcCK2n7Sw0-125" value="" style="group;fillColor=#ffffff;strokeColor=#000000;dashed=1;" vertex="1" connectable="0" parent="1">
          <mxGeometry x="80" y="200" width="650" height="600" as="geometry" />
        </mxCell>
        <mxCell id="1z4ttIA4PokcCK2n7Sw0-85" value="" style="group;container=1;" vertex="1" connectable="0" parent="1z4ttIA4PokcCK2n7Sw0-125">
          <mxGeometry width="650" height="300" as="geometry" />
        </mxCell>
        <mxCell id="1z4ttIA4PokcCK2n7Sw0-84" value="" style="rounded=0;whiteSpace=wrap;html=1;fontFamily=Helvetica;dashed=1;" vertex="1" parent="1z4ttIA4PokcCK2n7Sw0-85">
          <mxGeometry width="650" height="300" as="geometry" />
        </mxCell>
        <mxCell id="1z4ttIA4PokcCK2n7Sw0-62" value="" style="group" vertex="1" connectable="0" parent="1z4ttIA4PokcCK2n7Sw0-85">
          <mxGeometry x="55" y="50" width="540" height="60" as="geometry" />
        </mxCell>
        <mxCell id="1z4ttIA4PokcCK2n7Sw0-57" value="客户端及服务器端&lt;br&gt;实时数据处理&lt;br&gt;" style="html=1;shadow=0;dashed=0;align=center;verticalAlign=middle;shape=mxgraph.arrows2.arrow;dy=0;dx=30;notch=30;fontFamily=Helvetica;" vertex="1" parent="1z4ttIA4PokcCK2n7Sw0-62">
          <mxGeometry width="200" height="60" as="geometry" />
        </mxCell>
        <mxCell id="1z4ttIA4PokcCK2n7Sw0-58" value="流处理平台&lt;br&gt;准实时数据处理" style="html=1;shadow=0;dashed=0;align=center;verticalAlign=middle;shape=mxgraph.arrows2.arrow;dy=0;dx=30;notch=30;fontFamily=Helvetica;" vertex="1" parent="1z4ttIA4PokcCK2n7Sw0-62">
          <mxGeometry x="170" width="200" height="60" as="geometry" />
        </mxCell>
        <mxCell id="1z4ttIA4PokcCK2n7Sw0-61" value="大数据平台&lt;br&gt;离线数据处理" style="html=1;shadow=0;dashed=0;align=center;verticalAlign=middle;shape=mxgraph.arrows2.arrow;dy=0;dx=30;notch=30;fontFamily=Helvetica;" vertex="1" parent="1z4ttIA4PokcCK2n7Sw0-62">
          <mxGeometry x="340" width="200" height="60" as="geometry" />
        </mxCell>
        <mxCell id="1z4ttIA4PokcCK2n7Sw0-67" value="" style="group" vertex="1" connectable="0" parent="1z4ttIA4PokcCK2n7Sw0-85">
          <mxGeometry x="169" y="140" width="330" height="40" as="geometry" />
        </mxCell>
        <mxCell id="1z4ttIA4PokcCK2n7Sw0-63" value="User" style="rounded=0;whiteSpace=wrap;html=1;fontFamily=Helvetica;" vertex="1" parent="1z4ttIA4PokcCK2n7Sw0-67">
          <mxGeometry width="110" height="40" as="geometry" />
        </mxCell>
        <mxCell id="1z4ttIA4PokcCK2n7Sw0-64" value="Item" style="rounded=0;whiteSpace=wrap;html=1;fontFamily=Helvetica;" vertex="1" parent="1z4ttIA4PokcCK2n7Sw0-67">
          <mxGeometry x="110" width="110" height="40" as="geometry" />
        </mxCell>
        <mxCell id="1z4ttIA4PokcCK2n7Sw0-66" value="Context" style="rounded=0;whiteSpace=wrap;html=1;fontFamily=Helvetica;" vertex="1" parent="1z4ttIA4PokcCK2n7Sw0-67">
          <mxGeometry x="220" width="110" height="40" as="geometry" />
        </mxCell>
        <mxCell id="1z4ttIA4PokcCK2n7Sw0-68" style="edgeStyle=orthogonalEdgeStyle;rounded=0;orthogonalLoop=1;jettySize=auto;html=1;exitX=1;exitY=0.5;exitDx=0;exitDy=0;exitPerimeter=0;entryX=1;entryY=0.5;entryDx=0;entryDy=0;fontFamily=Helvetica;" edge="1" parent="1z4ttIA4PokcCK2n7Sw0-85" source="1z4ttIA4PokcCK2n7Sw0-61" target="1z4ttIA4PokcCK2n7Sw0-66">
          <mxGeometry relative="1" as="geometry" />
        </mxCell>
        <mxCell id="1z4ttIA4PokcCK2n7Sw0-71" value="特征工程" style="rounded=0;whiteSpace=wrap;html=1;fontFamily=Helvetica;" vertex="1" parent="1z4ttIA4PokcCK2n7Sw0-85">
          <mxGeometry x="279" y="210" width="110" height="40" as="geometry" />
        </mxCell>
        <mxCell id="1z4ttIA4PokcCK2n7Sw0-72" value="" style="edgeStyle=orthogonalEdgeStyle;rounded=0;orthogonalLoop=1;jettySize=auto;html=1;fontFamily=Helvetica;" edge="1" parent="1z4ttIA4PokcCK2n7Sw0-85" source="1z4ttIA4PokcCK2n7Sw0-64" target="1z4ttIA4PokcCK2n7Sw0-71">
          <mxGeometry relative="1" as="geometry" />
        </mxCell>
        <mxCell id="1z4ttIA4PokcCK2n7Sw0-82" value="特征数据库" style="shape=cylinder;whiteSpace=wrap;html=1;boundedLbl=1;backgroundOutline=1;rounded=0;fillColor=#dae8fc;strokeColor=#6c8ebf;" vertex="1" parent="1z4ttIA4PokcCK2n7Sw0-85">
          <mxGeometry x="510" y="190" width="70" height="80" as="geometry" />
        </mxCell>
        <mxCell id="1z4ttIA4PokcCK2n7Sw0-83" value="" style="edgeStyle=orthogonalEdgeStyle;rounded=0;orthogonalLoop=1;jettySize=auto;html=1;fontFamily=Helvetica;" edge="1" parent="1z4ttIA4PokcCK2n7Sw0-85" source="1z4ttIA4PokcCK2n7Sw0-71" target="1z4ttIA4PokcCK2n7Sw0-82">
          <mxGeometry relative="1" as="geometry" />
        </mxCell>
        <mxCell id="1z4ttIA4PokcCK2n7Sw0-103" value="&lt;b&gt;&lt;font style=&quot;font-size: 1px&quot;&gt;数据部分&lt;/font&gt;&lt;/b&gt;" style="text;html=1;strokeColor=none;fillColor=none;align=center;verticalAlign=middle;whiteSpace=wrap;rounded=0;fontFamily=Helvetica;" vertex="1" parent="1z4ttIA4PokcCK2n7Sw0-85">
          <mxGeometry x="15" y="10" width="55" height="30" as="geometry" />
        </mxCell>
        <mxCell id="1z4ttIA4PokcCK2n7Sw0-126" style="edgeStyle=orthogonalEdgeStyle;rounded=0;orthogonalLoop=1;jettySize=auto;html=1;exitX=0.5;exitY=1;exitDx=0;exitDy=0;fontFamily=Helvetica;" edge="1" parent="1z4ttIA4PokcCK2n7Sw0-125" source="1z4ttIA4PokcCK2n7Sw0-82">
          <mxGeometry relative="1" as="geometry">
            <mxPoint x="300" y="385" as="targetPoint" />
            <Array as="points">
              <mxPoint x="545" y="290" />
              <mxPoint x="300" y="290" />
            </Array>
          </mxGeometry>
        </mxCell>
      </root>
    </mxGraphModel>
  </diagram>
</mxfile>
